<svg width="12" height="10" viewBox="0 0 12 10" fill="none" xmlns="http://www.w3.org/2000/svg">
    <path id="Path 20" fill-rule="evenodd" clip-rule="evenodd"
        d="M12 2.16304C11.9963 2.34443 11.9258 2.51828 11.8017 2.65217L6.14876 8.22826L5.05785 9.30435C4.92211 9.42677 4.74587 9.49631 4.56198 9.5C4.3781 9.49631 4.20185 9.42677 4.06612 9.30435L2.97521 8.22826L0.198347 5.48913C0.0742388 5.35524 0.00374027 5.18139 0 5C0.00374027 4.81861 0.0742388 4.64476 0.198347 4.51087L1.28926 3.43478C1.42499 3.31236 1.60124 3.24282 1.78512 3.23913C1.96901 3.24282 2.14525 3.31236 2.28099 3.43478L4.56198 5.68478L9.61983 0.695652C9.75557 0.57323 9.93182 0.503689 10.1157 0.5C10.2996 0.503689 10.4758 0.57323 10.6116 0.695652L11.7025 1.77174C11.9008 1.86957 12 1.96739 12 2.16304Z"
        fill="white" />
</svg>